
<svg version="1.1" id="Capa_1" xmlns="http://www.w3.org/2000/svg" xmlns:xlink="http://www.w3.org/1999/xlink" x="0px" y="0px"
	 viewBox="0 0 512.001 512.001" style="enable-background:new 0 0 512.001 512.001;" xml:space="preserve">
<path style="fill:#DD2E44;" d="M313.029,75.003c-9.796,0-19.304,0.943-28.429,2.527c-11.708-1.499-39.123-3.299-51.275-3.299
	C112.343,74.233,6.482,119.596,6.482,278.388c0,129.022,100.649,233.612,242.394,233.612s256.643-104.592,256.643-233.612
	C505.519,117.768,371.514,75.003,313.029,75.003"/>
<path style="fill:#77B255;" d="M112.34,0c23.374,23.36,39.552,32.356,46.748,70.108c4.255,22.331,32.356,21.561,32.356,21.561
	s-55.73,25.187-79.103,48.547c0,0,70.108-23.36,93.482-23.36c0,0,46.734,23.36,46.734,46.734c0,0,0-46.734-23.36-46.734
	c0,0,70.093,0,70.093,46.734c0,0,0-70.123-23.36-70.123c0,0,70.123-23.36,93.482,0c0,0-24.059-24.559-70.123-23.36
	c0,0,23.389-23.374,70.123-23.374c0,0-75.505-21.575-98.865,25.173c0,0-19.791-19.776,19.761-59.328c0,0-61.112,10.78-61.112,57.528
	c0,0-22.16-0.556-37.752-17.976C160.873,17.976,112.34,0,112.34,0"/>

</svg>
